<?xml version="1.0" encoding="utf-8"?>
<!-- Generator: Adobe Illustrator 21.1.0, SVG Export Plug-In . SVG Version: 6.00 Build 0)  -->
<svg version="1.1" id="Layer_1" xmlns="http://www.w3.org/2000/svg" xmlns:xlink="http://www.w3.org/1999/xlink" x="0px" y="0px"
	 viewBox="0 0 2664.6 1672.4" style="enable-background:new 0 0 2664.6 1672.4;" xml:space="preserve">
<style type="text/css">
	.st0{fill:#FFFFFF;stroke:#0D9927;stroke-width:11;stroke-miterlimit:10;}
	.st1{fill:#FFFFFF;stroke:#4A4EA0;stroke-width:2;stroke-miterlimit:10;}
	.st2{fill:#231F20;}
	.st3{fill:#FFFFFF;stroke:#EE507E;stroke-width:2;stroke-miterlimit:10;}
</style>
<rect x="2.5" y="1" class="st0" width="2664.6" height="1672.4"/>
<rect x="527.2" y="574.8" class="st1" width="1610.1" height="958.1"/>
<g>
	<path class="st2" d="M1043.2,407.5c-6.6,7.5-12.9,15.1-18.9,22.8c-6,7.8-11.3,15.4-15.9,22.9c-4.6,7.5-8.2,14.8-10.9,21.8
		c-2.7,7-4.1,13.5-4.1,19.4c0,2.3,0.4,3.9,1.2,4.8c0.8,1,1.8,1.4,3.1,1.4c2.5,0,5.8-1.4,9.9-4.2c4.1-2.8,8.3-6.4,12.6-10.8
		c1.4-1.5,2.8-3.1,4.4-4.7c1.5-1.7,3-3.4,4.4-5.1c1.4-1.7,2.7-3.3,3.9-4.7c1.2-1.5,2.1-2.7,2.9-3.6l1,0.6c-2,2.6-4.3,5.5-6.8,8.8
		c-2.6,3.2-5.9,7-10.1,11.1c-4.4,4.4-8.8,8.1-13.2,11c-4.4,2.9-8.8,4.4-13.2,4.4c-2.2,0-4-0.3-5.4-1c-1.4-0.7-2.6-1.6-3.4-2.8
		c-0.8-1.2-1.4-2.5-1.8-4c-0.3-1.5-0.5-3-0.5-4.7c0-5.3,0.9-10.4,2.6-15.3c1.7-4.9,3.8-9.6,6.1-14H973c-3.6,4.2-7.5,8.6-11.9,13.4
		c-4.4,4.8-9.1,9.2-14.1,13.2c-5,4-10.3,7.4-15.9,10.1c-5.5,2.7-11.3,4-17.3,4c-2.6,0-5.1-0.3-7.5-0.9c-2.4-0.6-4.5-1.5-6.4-2.8
		c-1.9-1.3-3.4-2.8-4.5-4.7c-1.1-1.9-1.7-4.2-1.7-6.9c0-2.5,0.7-4.8,2.1-6.9c1.4-2.1,3.5-3.1,6.2-3.1c1.7,0,3.2,0.5,4.4,1.6
		c1.2,1.1,1.8,2.4,1.8,4c0,2.3-0.7,4-2.1,5.1c-1.4,1-3.2,1.6-5.5,1.6c0,1.8,0.4,3.5,1.3,4.9c0.9,1.5,2,2.7,3.2,3.6
		c1.3,1,2.8,1.7,4.4,2.2c1.6,0.5,3.2,0.8,4.8,0.8c3.9,0,7.7-0.7,11.5-2c3.8-1.3,7.5-3.1,11.1-5.4c3.6-2.3,7.1-4.9,10.5-7.8
		c3.4-2.9,6.6-6,9.8-9.1c3.1-3.1,6.1-6.3,8.8-9.4c2.8-3.2,5.3-6,7.7-8.6c4.8-5.4,9.7-10.7,14.9-15.9c5.2-5.2,10.6-10.2,16.2-14.8
		c5.6-4.6,11.5-8.8,17.7-12.5c6.2-3.7,12.7-6.6,19.6-8.6L1043.2,407.5z M992,460.3c4.9-8.6,10.4-16.7,16.5-24.4
		c6.2-7.7,12.9-14.9,20.1-21.7l-0.3-0.3c-10.2,5.4-19.7,12-28.3,20c-8.6,8-17.2,16.8-25.7,26.4H992z"/>
	<path class="st2" d="M1080.8,411.4l-40.2,64c-3.4,5.5-6.1,10-8.1,13.6c-2,3.6-3,6.5-3,8.8c0,2.3,1,3.5,2.9,3.5c1.8,0,4.3-1,7.4-3
		c3.1-2,6.5-4.8,10-8.3c3.3-3.3,6.5-6.8,9.8-10.5c3.2-3.7,6.3-7.6,9.4-11.6l1.2,0.4c-1,1.4-2.2,2.9-3.6,4.7
		c-1.3,1.7-2.8,3.5-4.2,5.3c-1.5,1.8-3,3.6-4.5,5.3c-1.5,1.8-3,3.4-4.5,4.9c-5,5.1-9.5,8.9-13.3,11.4c-3.9,2.5-7.9,3.8-12,3.8
		c-5.9,0-8.8-2.6-8.8-7.8c0-2.4,0.9-5.5,2.7-9.2c1.8-3.7,4.5-8.6,8.3-14.9l36.3-59.5L1080.8,411.4z"/>
	<path class="st2" d="M1031.5,512.5c-0.4-0.1-1.2-0.1-2.3-0.1c-3.7,0-6.6,1.3-8.6,4c-2,2.7-3.1,6-3.1,9.9c0,4.6,1.4,8.2,4.2,10.8
		c2.8,2.6,6.3,3.9,10.5,3.9c4.4,0,8.6-0.9,12.5-2.8c3.9-1.9,7.5-4.3,10.9-7.4c3.4-3.1,6.6-6.6,9.6-10.5c3-3.9,5.8-8,8.3-12.2
		c2.6-4.2,5-8.2,7.2-12.2c2.3-4,4.3-7.6,6.2-10.8l-0.3-0.3c-1.3,1.6-2.9,3.4-4.9,5.5c-2,2.1-4.1,4.2-6.6,6.1c-2.4,2-5,3.6-7.7,5
		c-2.7,1.4-5.4,2.1-8.2,2.1c-2.9,0-4.9-0.8-6.2-2.5c-1.3-1.6-1.9-3.6-1.9-5.9c0-2.2,0.6-4.6,1.8-7.4c1.2-2.8,2.8-5.8,4.6-9.2
		c1.9-3.3,4-6.9,6.3-10.6c2.3-3.7,4.7-7.6,7-11.6l13.8-0.5c-7.3,11.4-13,20.3-17,26.9c-4.1,6.6-6.1,11.3-6.1,14c0,1,0.3,1.9,1,2.5
		s1.5,1,2.4,1c1.6,0,3.6-0.8,6-2.4c2.4-1.6,5-3.7,7.7-6.4c2.7-2.7,5.5-5.8,8.3-9.3c2.8-3.5,5.3-7.1,7.5-10.9c1.9-3.1,3.6-6,5.1-8.6
		c1.5-2.6,2.6-4.7,3.2-6.4l12.7-0.5c-4.7,8.1-9.2,16.1-13.6,24.1c-4.4,8-8.9,16-13.7,23.9c4.2-1.2,8.3-3.1,12.4-5.7
		c4.1-2.6,8-5.5,11.8-8.9s7.3-7,10.5-10.8c3.2-3.8,6.2-7.5,8.8-11.2l1,0.9c-2.9,4.2-6.2,8.4-9.8,12.4c-3.6,4-7.3,7.7-11.2,11.1
		c-3.9,3.3-8,6.2-12.2,8.6s-8.3,4.2-12.5,5.2c-3.1,5.3-6.6,10.2-10.5,14.7c-3.9,4.5-8.2,8.4-12.9,11.7c-4.7,3.3-9.8,5.9-15.2,7.7
		c-5.5,1.9-11.3,2.8-17.6,2.8c-3.1,0-6.2-0.3-9.1-0.8c-2.9-0.6-5.5-1.5-7.8-2.9c-2.3-1.3-4.1-3.1-5.5-5.3c-1.4-2.2-2.1-4.9-2.1-8.1
		c0-2.6,0.5-4.8,1.6-6.6c1.1-1.8,2.5-3.3,4.3-4.5c1.8-1.2,3.8-2,6.1-2.6c2.3-0.6,4.7-0.8,7.1-0.8c1,0,2.1,0,3.2,0.1
		c1.1,0.1,2,0.2,2.7,0.4V512.5z"/>
	<path class="st2" d="M1168.9,457.3l13.5-0.8c-0.8,1.6-1.9,3.4-3.4,5.7c-1.5,2.2-3.1,4.6-4.8,7.1c-1.7,2.6-3.5,5.2-5.3,7.9
		c-1.8,2.7-3.4,5.4-4.9,7.9c-1.5,2.6-2.7,4.9-3.6,7.2s-1.4,4.1-1.4,5.7c0,2.2,1.1,3.2,3.2,3.2c2.1,0,4.9-1.2,8.4-3.6
		c3.6-2.4,7.3-5.6,11.2-9.6c1.6-1.6,3.3-3.4,5-5.3c1.7-1.9,3.3-3.8,4.9-5.7c1.6-1.9,3-3.6,4.3-5.2c1.3-1.6,2.3-2.9,3.1-4l0.9,0.5
		c-2.3,3-4.9,6.4-7.8,10.1c-2.9,3.7-6.5,7.6-10.7,11.8c-4.2,4.2-8.3,7.6-12.3,10.2c-4,2.6-8,4-12,4c-2.8,0-4.9-0.7-6.4-2.1
		c-1.5-1.4-2.3-3.2-2.3-5.3c0-0.7,0-1.3,0.1-1.9c0.1-0.6,0.2-1.1,0.4-1.4h-0.3c-2.7,3-5.7,5.6-9.1,7.7s-7,3.1-10.9,3.1
		c-2.1,0-3.9-0.4-5.3-1.2c-1.5-0.8-2.7-1.8-3.6-3.2c-0.9-1.3-1.6-2.9-2-4.6c-0.4-1.7-0.6-3.4-0.6-5.3c0-4.2,1.2-8.5,3.5-12.7
		c2.3-4.2,5.3-8.1,8.8-11.5c3.6-3.4,7.5-6.2,11.9-8.3c4.4-2.1,8.6-3.2,12.5-3.2c3,0,5.4,0.6,7.2,1.9c1.7,1.3,3.2,3.3,4.3,6.1
		L1168.9,457.3z M1129.9,490.5c0,2.5,0.4,4.7,1.2,6.6c0.8,1.9,2.6,2.8,5.3,2.8c1.8-0.1,3.7-0.8,5.7-2.3c2-1.4,3.9-3.2,5.8-5.4
		c1.9-2.2,3.6-4.6,5.3-7.2c1.7-2.6,3.2-5.3,4.4-8c1.3-2.7,2.3-5.2,3-7.6c0.7-2.4,1.1-4.4,1.1-6c0-2.3-0.4-4.2-1.3-5.5
		c-0.9-1.3-2.6-1.9-5.1-1.9c-2,0-4,0.6-6,1.8c-2,1.2-4,2.8-5.8,4.8c-1.9,2-3.6,4.2-5.3,6.7c-1.7,2.5-3.1,5-4.4,7.6
		c-1.2,2.6-2.2,5.1-2.9,7.5C1130.3,486.8,1129.9,488.8,1129.9,490.5z"/>
	<path class="st2" d="M1261.5,482.1c-1.6,2.5-3.4,5-5.4,7.4c-2.1,2.5-4.3,4.7-6.7,6.7c-2.4,2-5.1,3.6-8,4.8c-2.9,1.2-6,1.8-9.2,1.8
		c-1.2,0-2.4-0.2-3.5-0.5c-1.1-0.3-2-0.8-2.8-1.4s-1.5-1.4-2-2.4c-0.5-1-0.7-2.1-0.7-3.4c0-1.4,0.4-2.6,1.3-3.7
		c0.9-1.1,2.1-1.6,3.6-1.6c0.8,0,1.4,0.2,1.9,0.6c0.5,0.4,0.7,1,0.7,1.8c0,0.7-0.2,1.4-0.5,1.9c-0.4,0.5-0.9,0.8-1.6,0.8
		c-0.6,0-1-0.2-1.4-0.5c-0.3-0.3-0.6-0.7-0.7-1.2c-0.6,0.3-1,0.8-1.2,1.4c-0.2,0.6-0.3,1.2-0.3,1.8c0,1.8,0.7,3.2,2.1,4.1
		c1.4,0.9,2.9,1.4,4.6,1.4c1.1,0,2-0.2,2.8-0.7c0.8-0.4,1.5-1,2-1.7c0.5-0.7,0.9-1.5,1.2-2.5c0.3-0.9,0.4-1.9,0.4-2.8
		c0-1-0.2-2-0.5-3.1c-0.3-1.1-0.7-2.1-1.1-3.2c-0.4-1-0.8-2.1-1.2-3.1c-0.4-1-0.5-2-0.5-2.8c0-1.1,0.2-2.2,0.7-3.1
		c0.5-0.9,1.1-1.7,1.9-2.3c0.8-0.6,1.7-1.1,2.8-1.4c1-0.3,2.1-0.5,3.3-0.5c2.1,0,3.8,0.5,5.1,1.4c1.3,0.9,2,2.1,2,3.6
		c0,1.4-0.5,2.3-1.5,3s-2.1,0.9-3.4,0.9c0.3-0.6,0.6-1.3,0.8-2.1c0.2-0.8,0.4-1.5,0.4-2.2c0-1-0.3-1.9-1-2.6
		c-0.7-0.7-1.6-1.1-2.8-1.1c-1.5,0-2.6,0.5-3.4,1.4c-0.7,0.9-1.1,2-1.1,3.3c0,1.1,0.2,2.2,0.6,3.3c0.4,1,0.8,2.1,1.4,3.1
		c0.5,1,0.9,2.1,1.3,3.2c0.4,1.1,0.6,2.3,0.6,3.7c0,1-0.2,1.9-0.7,2.8c-0.4,0.9-1,1.7-1.8,2.5c-0.7,0.8-1.5,1.4-2.5,1.9
		c-0.9,0.5-1.8,0.9-2.8,1l0.2,0.2c2.8-0.3,5.5-1.1,8-2.5c2.5-1.3,4.9-2.9,7.1-4.8c2.2-1.9,4.3-4,6.1-6.2s3.5-4.5,4.9-6.7
		L1261.5,482.1z"/>
	<path class="st2" d="M1247.1,502.2c1.1-1.9,2.5-4,3.9-6.3c1.5-2.3,3-4.6,4.5-7c1.5-2.4,3-4.7,4.5-7c1.5-2.3,2.8-4.5,4-6.5h4.8
		l-10.3,14.5l0.2,0.2c1-1.2,2.2-2.7,3.6-4.4c1.4-1.7,3-3.4,4.6-5c1.7-1.6,3.5-3,5.4-4.1c1.9-1.1,3.9-1.7,5.9-1.7
		c1.2,0,2.3,0.3,3.1,1c0.8,0.7,1.2,1.6,1.2,2.8c0,0.7-0.3,1.6-0.8,2.7c-0.5,1-1.1,2.1-1.8,3.2c-0.7,1.1-1.4,2.1-2.1,3.1
		c-0.7,1-1.3,1.8-1.7,2.4l0.2,0.2c1.1-1.6,2.4-3.2,3.9-5c1.5-1.8,3.2-3.4,4.9-5c1.7-1.5,3.5-2.8,5.4-3.8s3.6-1.5,5.3-1.5
		c1.5,0,2.6,0.4,3.4,1.1c0.8,0.7,1.1,1.7,1.1,3c0,0.9-0.3,1.9-0.9,3.1c-0.6,1.2-1.4,2.5-2.3,3.8c-0.9,1.3-1.9,2.7-2.9,4
		c-1,1.4-2,2.7-2.9,3.9c-0.9,1.2-1.7,2.4-2.3,3.5c-0.6,1.1-0.9,2-0.9,2.7c0,0.6,0.2,1.1,0.6,1.5c0.4,0.4,0.9,0.5,1.4,0.5
		c1.2,0,2.7-0.5,4.4-1.5c1.7-1,3.5-2.4,5.5-4.1c2-1.8,4-3.9,6.1-6.4c2.1-2.5,4.3-5.2,6.5-8.2l0.6,0.3c-2.1,2.9-4.3,5.6-6.4,8.2
		c-2.1,2.5-4.2,4.7-6.2,6.6c-2,1.9-3.9,3.3-5.8,4.4c-1.8,1.1-3.5,1.6-5.1,1.6c-1.6,0-2.8-0.5-3.6-1.4s-1.2-2-1.2-3.4
		c0-1,0.3-2.1,0.9-3.3c0.6-1.2,1.4-2.5,2.3-3.8c0.9-1.3,1.9-2.6,2.9-3.9c1-1.3,2-2.5,2.9-3.7c0.9-1.2,1.7-2.3,2.3-3.3
		c0.6-1,0.9-1.8,0.9-2.4c0-0.7-0.2-1.2-0.6-1.5c-0.4-0.3-0.9-0.4-1.4-0.4c-1,0-2.3,0.4-3.7,1.1c-1.4,0.7-2.9,1.7-4.4,3
		c-1.5,1.3-3.1,2.8-4.7,4.4c-1.6,1.7-3.2,3.5-4.7,5.5c-1.5,2-3,4-4.3,6.2c-1.4,2.2-2.5,4.3-3.5,6.4h-5c1.5-2.6,3-5.2,4.7-7.8
		c1.7-2.6,3.3-5,4.7-7.2c1.5-2.2,2.7-4.1,3.7-5.8c1-1.6,1.5-2.8,1.5-3.6c0-1.4-0.7-2.1-2.2-2.1c-1.3,0-2.8,0.5-4.4,1.4
		c-1.6,1-3.3,2.2-4.9,3.7c-1.7,1.5-3.3,3.3-4.9,5.2c-1.6,1.9-3.1,3.9-4.6,5.9c-1.4,2-2.7,3.9-3.8,5.7c-1.1,1.8-2,3.3-2.6,4.6H1247.1
		z"/>
	<path class="st2" d="M1333.9,475.4h5.1c-1.9,2.7-3.8,5.3-5.5,7.9c-1.8,2.5-3.3,4.9-4.7,7.1c-1.4,2.2-2.5,4.1-3.3,5.7
		c-0.8,1.6-1.2,2.9-1.2,3.9c0,1.4,0.7,2,2.1,2c1.1,0,2.5-0.5,4.2-1.6c1.7-1.1,3.5-2.5,5.5-4.4c2-1.9,4-4.1,6.1-6.6
		c2.1-2.5,4.1-5.1,5.9-8l0.5,0.2c-1.4,2.1-3.1,4.4-5,6.9c-1.9,2.5-3.9,4.8-6,6.9c-2.1,2.1-4.2,3.9-6.2,5.3c-2.1,1.4-4,2.1-5.9,2.1
		c-1.5,0-2.6-0.4-3.3-1.1c-0.7-0.8-1.1-1.7-1.1-2.7c0-0.7,0.1-1.4,0.4-2.1c0.2-0.7,0.5-1.4,0.7-2.1l-0.2-0.1
		c-0.7,0.7-1.5,1.6-2.5,2.5c-1,1-2.1,1.9-3.3,2.7c-1.2,0.8-2.4,1.5-3.6,2.1c-1.2,0.6-2.4,0.9-3.6,0.9c-1.9,0-3.3-0.6-4.1-1.8
		c-0.8-1.2-1.2-2.5-1.2-4.1c0-2.1,0.7-4.5,2-7.1c1.4-2.6,3.1-5,5.1-7.3c2.1-2.3,4.3-4.1,6.8-5.7c2.4-1.5,4.8-2.3,6.9-2.3
		c1,0,1.9,0.1,2.7,0.4c0.8,0.3,1.4,0.7,2,1.2c0.5,0.5,0.9,1.1,1.2,1.7c0.3,0.6,0.5,1.3,0.7,2h0.2L1333.9,475.4z M1308.4,497.3
		c0,1.2,0.2,2.1,0.7,2.8c0.5,0.7,1.2,1,2.1,1c0.9,0,1.9-0.3,3.1-1c1.2-0.6,2.4-1.5,3.7-2.6c1.3-1.1,2.6-2.4,3.9-3.8
		c1.3-1.4,2.4-3,3.4-4.6c1-1.6,1.8-3.2,2.4-4.9c0.6-1.7,0.9-3.2,0.9-4.8c0-1.2-0.3-2.1-1-2.7s-1.5-0.9-2.5-0.9c-1.6,0-3.3,0.7-5.2,2
		c-1.9,1.4-3.7,3.1-5.5,5.2c-1.7,2.1-3.2,4.4-4.3,7C1309,492.5,1308.4,494.9,1308.4,497.3z"/>
	<path class="st2" d="M1355.6,475.4l-9.9,14.4l0.2,0.2c0.7-0.9,1.7-1.9,2.8-3.1s2.3-2.4,3.7-3.6c1.3-1.2,2.7-2.4,4.2-3.6
		c1.5-1.2,2.9-2.3,4.3-3.2c0.3-0.5,0.5-0.9,0.9-1.2c0.3-0.3,0.9-0.5,1.9-0.5c0.6,0,1.1,0,1.5,0c0.4,0,0.9,0.1,1.4,0.1
		c-0.9,0.9-1.7,2-2.6,3.2c-0.8,1.3-1.2,2.7-1.2,4.2c0,1.2,0.3,2.1,0.9,2.8c0.6,0.7,1.3,1,2.2,1c0.8,0,1.5-0.2,2.3-0.5
		c0.8-0.3,1.5-0.7,2.1-1.2c0.7-0.5,1.3-1,1.9-1.5c0.6-0.5,1.2-1,1.6-1.4l0.5,0.3c-0.5,0.5-1.1,1.1-1.8,1.7c-0.7,0.6-1.4,1.2-2.2,1.7
		c-0.8,0.5-1.6,0.9-2.5,1.3c-0.9,0.3-1.8,0.5-2.7,0.5c-1.7,0-3-0.5-4-1.5c-1-1-1.5-2.4-1.5-4.3c0-1.2,0.3-2.4,0.9-3.4l-0.2-0.2
		c-2.1,1.5-4.5,3.4-7,5.7c-2.5,2.4-5.3,5.2-8.1,8.4c-1,1.1-2.1,2.7-3.2,4.5c-1.1,1.9-2.1,3.8-2.9,5.8h-5.1c2.8-4.5,5.6-8.9,8.4-13.3
		c2.8-4.4,5.7-8.9,8.7-13.5H1355.6z"/>
	<path class="st2" d="M1387.4,466.4l-6.2,9h10.3l-0.5,0.9h-10.5c-2.1,3.4-3.9,6.3-5.6,8.8c-1.6,2.5-3,4.6-4.1,6.4
		c-1.1,1.8-2,3.3-2.5,4.5c-0.6,1.2-0.9,2.3-0.9,3.2c0,1,0.3,1.7,1,2.1c0.7,0.4,1.5,0.6,2.3,0.6c1.9,0,3.9-0.7,6.2-2.1
		c2.3-1.4,4.5-3.2,6.7-5.3c2.2-2.1,4.4-4.3,6.4-6.6s3.7-4.4,5.1-6.3l0.5,0.3c-1.8,2.2-3.7,4.6-5.8,7.1c-2.1,2.5-4.3,4.7-6.5,6.8
		c-2.2,2.1-4.5,3.8-6.7,5.1c-2.3,1.4-4.4,2-6.4,2c-1.6,0-3-0.5-4.2-1.5s-1.8-2.4-1.8-4.1c0-1.2,0.3-2.5,1-4c0.7-1.5,1.6-3.1,2.7-4.8
		c1.1-1.7,2.3-3.6,3.7-5.6c1.4-2,2.8-4.2,4.3-6.5h-4.2l0.5-0.9h4.4l6.1-9H1387.4z"/>
	<path class="st2" d="M1401,502.2c1.1-1.9,2.5-4,3.9-6.3c1.5-2.3,3-4.6,4.5-7c1.5-2.4,3-4.7,4.5-7c1.5-2.3,2.8-4.5,4-6.5h4.8
		l-10.3,14.5l0.2,0.2c1-1.2,2.2-2.7,3.6-4.4c1.4-1.7,3-3.4,4.6-5c1.7-1.6,3.5-3,5.4-4.1c1.9-1.1,3.9-1.7,5.9-1.7
		c1.2,0,2.3,0.3,3.1,1c0.8,0.7,1.2,1.6,1.2,2.8c0,0.7-0.3,1.6-0.8,2.7c-0.5,1-1.1,2.1-1.8,3.2c-0.7,1.1-1.4,2.1-2.1,3.1
		c-0.7,1-1.3,1.8-1.7,2.4l0.2,0.2c1.1-1.6,2.4-3.2,3.9-5c1.5-1.8,3.2-3.4,4.9-5c1.7-1.5,3.5-2.8,5.4-3.8c1.8-1,3.6-1.5,5.3-1.5
		c1.5,0,2.6,0.4,3.4,1.1c0.8,0.7,1.1,1.7,1.1,3c0,0.9-0.3,1.9-0.9,3.1c-0.6,1.2-1.4,2.5-2.3,3.8c-0.9,1.3-1.9,2.7-2.9,4
		c-1,1.4-2,2.7-2.9,3.9c-0.9,1.2-1.7,2.4-2.3,3.5c-0.6,1.1-0.9,2-0.9,2.7c0,0.6,0.2,1.1,0.6,1.5c0.4,0.4,0.9,0.5,1.4,0.5
		c1.2,0,2.7-0.5,4.4-1.5c1.7-1,3.5-2.4,5.5-4.1c1.9-1.8,4-3.9,6.1-6.4c2.1-2.5,4.3-5.2,6.5-8.2l0.6,0.3c-2.1,2.9-4.3,5.6-6.4,8.2
		c-2.1,2.5-4.2,4.7-6.2,6.6s-3.9,3.3-5.8,4.4c-1.8,1.1-3.5,1.6-5.1,1.6c-1.6,0-2.8-0.5-3.6-1.4c-0.8-0.9-1.2-2-1.2-3.4
		c0-1,0.3-2.1,0.9-3.3c0.6-1.2,1.4-2.5,2.3-3.8c0.9-1.3,1.9-2.6,2.9-3.9c1-1.3,2-2.5,2.9-3.7c0.9-1.2,1.7-2.3,2.3-3.3
		c0.6-1,0.9-1.8,0.9-2.4c0-0.7-0.2-1.2-0.6-1.5c-0.4-0.3-0.9-0.4-1.4-0.4c-1,0-2.3,0.4-3.7,1.1c-1.4,0.7-2.9,1.7-4.4,3
		c-1.5,1.3-3.1,2.8-4.7,4.4c-1.6,1.7-3.2,3.5-4.7,5.5c-1.5,2-3,4-4.3,6.2c-1.4,2.2-2.5,4.3-3.5,6.4h-5c1.5-2.6,3-5.2,4.7-7.8
		c1.7-2.6,3.3-5,4.7-7.2c1.5-2.2,2.7-4.1,3.7-5.8c1-1.6,1.5-2.8,1.5-3.6c0-1.4-0.7-2.1-2.2-2.1c-1.3,0-2.8,0.5-4.4,1.4
		c-1.6,1-3.2,2.2-4.9,3.7c-1.7,1.5-3.3,3.3-4.9,5.2c-1.6,1.9-3.1,3.9-4.6,5.9c-1.4,2-2.7,3.9-3.8,5.7s-2,3.3-2.6,4.6H1401z"/>
	<path class="st2" d="M1475.6,475.4c-2.9,4.1-5.3,7.6-7.3,10.4c-2,2.8-3.6,5.1-4.8,7s-2.1,3.4-2.7,4.4c-0.5,1.1-0.8,2-0.8,2.7
		c0,1.4,0.5,2,1.6,2c1,0,2.2-0.4,3.6-1.1c1.4-0.8,2.8-1.7,4.3-2.9c1.5-1.2,3-2.5,4.5-4.1c1.5-1.5,2.9-3,4.2-4.5
		c1.3-1.5,2.5-2.9,3.5-4.3c1-1.4,1.8-2.5,2.2-3.4l0.6,0.4c-0.6,1-1.5,2.3-2.5,3.7c-1.1,1.5-2.3,3-3.6,4.5c-1.4,1.5-2.8,3.1-4.3,4.6
		c-1.5,1.5-3,2.9-4.6,4.1c-1.6,1.2-3.1,2.2-4.6,2.9c-1.5,0.7-2.8,1.1-4.1,1.1c-1.4,0-2.4-0.4-3.1-1.2c-0.7-0.8-1-1.6-1-2.6
		c0-1.1,0.2-2.2,0.7-3.5c0.5-1.2,1.3-2.7,2.4-4.5c1.1-1.8,2.5-3.9,4.3-6.4c1.7-2.5,3.8-5.6,6.3-9.3H1475.6z M1480.1,460.9
		c0.7,0,1.3,0.2,1.8,0.7c0.5,0.5,0.7,1.1,0.7,1.8c0,0.7-0.2,1.3-0.7,1.8c-0.5,0.5-1.1,0.7-1.8,0.7c-0.7,0-1.3-0.2-1.8-0.7
		c-0.5-0.5-0.7-1.1-0.7-1.8c0-0.7,0.2-1.3,0.7-1.8C1478.8,461.2,1479.4,460.9,1480.1,460.9z"/>
	<path class="st2" d="M1492.1,475.4l-9.9,14.4l0.2,0.2c0.7-0.9,1.7-1.9,2.8-3.1s2.3-2.4,3.7-3.6c1.3-1.2,2.7-2.4,4.2-3.6
		c1.5-1.2,2.9-2.3,4.3-3.2c0.3-0.5,0.5-0.9,0.9-1.2s0.9-0.5,1.9-0.5c0.6,0,1.1,0,1.5,0c0.4,0,0.9,0.1,1.4,0.1
		c-0.9,0.9-1.7,2-2.6,3.2c-0.8,1.3-1.2,2.7-1.2,4.2c0,1.2,0.3,2.1,0.9,2.8c0.6,0.7,1.3,1,2.2,1c0.8,0,1.5-0.2,2.3-0.5
		c0.8-0.3,1.5-0.7,2.1-1.2c0.7-0.5,1.3-1,1.9-1.5c0.6-0.5,1.2-1,1.6-1.4l0.5,0.3c-0.5,0.5-1.1,1.1-1.8,1.7c-0.7,0.6-1.4,1.2-2.2,1.7
		c-0.8,0.5-1.6,0.9-2.5,1.3c-0.9,0.3-1.8,0.5-2.7,0.5c-1.7,0-3-0.5-4-1.5c-1-1-1.5-2.4-1.5-4.3c0-1.2,0.3-2.4,0.9-3.4l-0.2-0.2
		c-2.1,1.5-4.5,3.4-7,5.7c-2.5,2.4-5.3,5.2-8.1,8.4c-1,1.1-2.1,2.7-3.2,4.5c-1.1,1.9-2.1,3.8-2.9,5.8h-5.1c2.8-4.5,5.6-8.9,8.4-13.3
		c2.8-4.4,5.7-8.9,8.7-13.5H1492.1z"/>
	<path class="st2" d="M1518.1,475.4l-9.9,14.4l0.2,0.2c0.7-0.9,1.7-1.9,2.8-3.1c1.1-1.2,2.3-2.4,3.7-3.6c1.3-1.2,2.7-2.4,4.2-3.6
		c1.5-1.2,2.9-2.3,4.3-3.2c0.3-0.5,0.5-0.9,0.9-1.2s0.9-0.5,1.9-0.5c0.6,0,1.1,0,1.5,0c0.4,0,0.9,0.1,1.4,0.1
		c-0.9,0.9-1.7,2-2.6,3.2c-0.8,1.3-1.2,2.7-1.2,4.2c0,1.2,0.3,2.1,0.9,2.8c0.6,0.7,1.3,1,2.2,1c0.8,0,1.5-0.2,2.3-0.5
		c0.8-0.3,1.5-0.7,2.1-1.2c0.7-0.5,1.3-1,2-1.5c0.6-0.5,1.2-1,1.6-1.4l0.5,0.3c-0.5,0.5-1.1,1.1-1.8,1.7c-0.7,0.6-1.4,1.2-2.2,1.7
		c-0.8,0.5-1.6,0.9-2.5,1.3c-0.9,0.3-1.8,0.5-2.7,0.5c-1.7,0-3-0.5-4-1.5c-1-1-1.5-2.4-1.5-4.3c0-1.2,0.3-2.4,0.9-3.4l-0.2-0.2
		c-2.1,1.5-4.5,3.4-7,5.7c-2.5,2.4-5.3,5.2-8.1,8.4c-1,1.1-2.1,2.7-3.2,4.5c-1.1,1.9-2.1,3.8-2.9,5.8h-5.1c2.8-4.5,5.6-8.9,8.4-13.3
		c2.8-4.4,5.7-8.9,8.7-13.5H1518.1z"/>
	<path class="st2" d="M1571.1,482.5c-1.2,1.4-2.7,2.5-4.2,3.4c-1.6,0.8-3.1,1.2-4.6,1.2c-1.5,0-2.7-0.3-3.7-1
		c-1-0.6-1.8-1.4-2.4-2.3h-0.2c-0.5,2-1.5,4.1-2.9,6.3c-1.4,2.2-3.1,4.3-5,6.2c-2,1.9-4.1,3.4-6.4,4.7s-4.7,1.9-7.2,1.9
		c-2.2,0-3.9-0.6-5.1-2c-1.1-1.3-1.7-3-1.7-5.2c0-1.1,0.3-2.5,0.9-4c0.6-1.5,1.4-3,2.4-4.6c1-1.5,2.2-3,3.6-4.5
		c1.4-1.5,2.9-2.8,4.5-4c1.6-1.2,3.3-2.1,5.1-2.8c1.8-0.7,3.6-1.1,5.4-1.1c2.1,0,3.8,0.6,5,1.9s1.8,2.9,1.9,4.8
		c0.1,1.2,0.7,2.3,1.7,3.3c1,1,2.4,1.5,4.2,1.5c1.6,0,3-0.4,4.4-1.2c1.4-0.8,2.7-1.8,3.9-3L1571.1,482.5z M1531.9,497.6
		c0,1.4,0.3,2.4,0.8,3.2c0.5,0.8,1.3,1.2,2.3,1.2c1.4,0,2.8-0.4,4.2-1.1c1.4-0.8,2.7-1.7,4-3c1.3-1.2,2.5-2.6,3.5-4.2s2-3.2,2.8-4.8
		c0.8-1.7,1.4-3.3,1.9-4.9c0.5-1.6,0.7-3,0.7-4.3c0-1.1-0.3-2-0.8-2.8c-0.5-0.8-1.4-1.1-2.5-1.1c-1.1,0-2.3,0.4-3.5,1.1
		c-1.2,0.7-2.5,1.6-3.8,2.8c-1.3,1.1-2.5,2.5-3.6,4c-1.1,1.5-2.2,3.1-3.1,4.7c-0.9,1.6-1.6,3.2-2.1,4.8
		C1532.2,494.7,1531.9,496.2,1531.9,497.6z"/>
	<path class="st2" d="M1578.7,475.4l-9.9,14.4l0.2,0.2c0.7-0.9,1.7-1.9,2.8-3.1c1.1-1.2,2.3-2.4,3.7-3.6c1.3-1.2,2.7-2.4,4.2-3.6
		c1.5-1.2,2.9-2.3,4.3-3.2c0.3-0.5,0.5-0.9,0.9-1.2c0.3-0.3,0.9-0.5,1.9-0.5c0.6,0,1.1,0,1.5,0c0.4,0,0.9,0.1,1.4,0.1
		c-0.9,0.9-1.7,2-2.6,3.2c-0.8,1.3-1.2,2.7-1.2,4.2c0,1.2,0.3,2.1,0.9,2.8c0.6,0.7,1.3,1,2.2,1c0.8,0,1.5-0.2,2.3-0.5
		s1.5-0.7,2.1-1.2c0.7-0.5,1.3-1,2-1.5c0.6-0.5,1.2-1,1.6-1.4l0.5,0.3c-0.5,0.5-1.1,1.1-1.8,1.7c-0.7,0.6-1.4,1.2-2.2,1.7
		c-0.8,0.5-1.6,0.9-2.5,1.3c-0.9,0.3-1.8,0.5-2.7,0.5c-1.7,0-3-0.5-4-1.5c-1-1-1.5-2.4-1.5-4.3c0-1.2,0.3-2.4,0.9-3.4l-0.2-0.2
		c-2.1,1.5-4.5,3.4-7,5.7c-2.5,2.4-5.3,5.2-8.1,8.4c-1,1.1-2.1,2.7-3.2,4.5c-1.1,1.9-2.1,3.8-2.9,5.8h-5.1c2.8-4.5,5.6-8.9,8.4-13.3
		c2.8-4.4,5.7-8.9,8.7-13.5H1578.7z"/>
</g>
<g>
	<g>
		<g>
			<g>
				<path d="M1185.1,439.8C1185.1,439.8,1185.1,439.8,1185.1,439.8c-0.5,0-0.8-0.3-0.9-0.8l-2.7-16.7l-16.9-3.1
					c-0.4-0.1-0.8-0.5-0.8-0.9c0-0.5,0.3-0.8,0.8-0.9l16.8-2.7l2.8-17.6c0.1-0.4,0.5-0.8,0.9-0.8c0.4,0,0.8,0.3,0.9,0.8l3.3,17.6
					l17,2.7c0.4,0.1,0.8,0.5,0.8,0.9c0,0.5-0.3,0.8-0.8,0.9l-17.2,3.2L1186,439C1185.9,439.5,1185.5,439.8,1185.1,439.8z
					 M1170.2,418.3l12.3,2.3c0.4,0.1,0.7,0.4,0.7,0.8l1.9,12.1l2.2-12c0.1-0.4,0.4-0.7,0.7-0.7l12.5-2.3l-12.3-2
					c-0.4-0.1-0.7-0.4-0.8-0.7l-2.4-12.9l-2.1,12.9c-0.1,0.4-0.4,0.7-0.8,0.8L1170.2,418.3z"/>
				<path d="M1185.1,440.2L1185.1,440.2c-0.7,0-1.2-0.5-1.3-1.1l-2.6-16.5l-16.6-3.1c-0.6-0.1-1.1-0.7-1.1-1.3
					c0-0.6,0.5-1.2,1.1-1.3l16.5-2.6l2.8-17.3c0.1-0.6,0.6-1.1,1.3-1.1c0.7,0,1.2,0.5,1.3,1.1l3.2,17.3l16.7,2.7
					c0.6,0.1,1.1,0.6,1.1,1.3c0,0.6-0.4,1.2-1.1,1.3l-16.9,3.1l-3.1,16.4C1186.2,439.7,1185.7,440.2,1185.1,440.2z M1185,396.7
					c-0.2,0-0.5,0.2-0.5,0.4l-2.8,17.9l-17,2.7c-0.3,0-0.4,0.3-0.4,0.5c0,0.3,0.2,0.5,0.4,0.5l17.2,3.2l2.7,17
					c0,0.3,0.3,0.4,0.5,0.4l0,0.4v-0.4c0.3,0,0.5-0.2,0.5-0.4l3.2-17l17.4-3.2c0.3,0,0.4-0.3,0.4-0.5c0-0.3-0.2-0.5-0.4-0.5
					l-17.3-2.7l-3.3-17.9C1185.5,396.8,1185.3,396.7,1185,396.7z M1185.1,435.7l-2.3-14.3c0-0.2-0.2-0.4-0.4-0.4l-14.5-2.7l14.4-2.3
					c0.2,0,0.4-0.2,0.4-0.4l2.4-15.2l2.8,15.2c0,0.2,0.2,0.4,0.4,0.4l14.6,2.3l-14.8,2.8c-0.2,0-0.4,0.2-0.4,0.4L1185.1,435.7z
					 M1172.5,418.3l10,1.9c0.6,0.1,1,0.5,1.1,1.1l1.6,9.8l1.8-9.8c0.1-0.5,0.5-1,1.1-1.1l10.3-1.9l-10.1-1.6c-0.6-0.1-1-0.5-1.1-1.1
					l-2-10.7l-1.7,10.7c-0.1,0.6-0.5,1-1.1,1.1L1172.5,418.3z"/>
			</g>
		</g>
		<g>
			<g>
				<path d="M1220.5,446.7C1220.5,446.7,1220.5,446.7,1220.5,446.7c-0.5,0-0.8-0.3-0.9-0.8l-2.1-13l-13.2-2.4
					c-0.4-0.1-0.8-0.5-0.8-0.9c0-0.5,0.3-0.8,0.8-0.9l13-2.1l2.2-13.7c0.1-0.4,0.5-0.8,0.9-0.8c0.4,0,0.8,0.3,0.9,0.8l2.5,13.7
					l13.2,2.1c0.4,0.1,0.8,0.5,0.8,0.9c0,0.5-0.3,0.8-0.8,0.9l-13.4,2.5l-2.4,13C1221.4,446.4,1221,446.7,1220.5,446.7z M1210,429.6
					l8.5,1.6c0.4,0.1,0.7,0.4,0.7,0.8l1.3,8.4l1.6-8.3c0.1-0.4,0.4-0.7,0.7-0.7l8.7-1.6l-8.6-1.4c-0.4-0.1-0.7-0.4-0.8-0.7l-1.7-9
					l-1.4,9c-0.1,0.4-0.4,0.7-0.8,0.8L1210,429.6z"/>
				<path d="M1220.5,447.1L1220.5,447.1c-0.7,0-1.2-0.5-1.3-1.1l-2-12.7l-12.9-2.4c-0.6-0.1-1.1-0.7-1.1-1.3c0-0.6,0.5-1.2,1.1-1.3
					l12.7-2l2.1-13.4c0.1-0.6,0.6-1.1,1.3-1.1c0.6,0,1.2,0.5,1.3,1.1l2.5,13.4l12.9,2.1c0.6,0.1,1.1,0.6,1.1,1.3
					c0,0.6-0.4,1.2-1.1,1.3l-13.1,2.4l-2.4,12.7C1221.7,446.7,1221.2,447.1,1220.5,447.1z M1220.5,412.5c-0.3,0-0.5,0.2-0.5,0.4
					l-2.2,14l-13.3,2.1c-0.3,0-0.4,0.3-0.4,0.5c0,0.3,0.2,0.5,0.4,0.5l13.4,2.5l2.1,13.3c0,0.3,0.3,0.4,0.5,0.4l0,0.4v-0.4
					c0.3,0,0.5-0.2,0.5-0.4l2.5-13.3l13.6-2.5c0.3,0,0.4-0.3,0.4-0.5c0-0.3-0.2-0.5-0.4-0.5l-13.5-2.1l-2.6-14
					C1221,412.7,1220.7,412.5,1220.5,412.5z M1220.6,442.7l-1.7-10.6c0-0.2-0.2-0.4-0.4-0.4l-10.8-2l10.7-1.7c0.2,0,0.4-0.2,0.4-0.4
					l1.8-11.3l2.1,11.3c0,0.2,0.2,0.4,0.4,0.4l10.8,1.7l-11,2c-0.2,0-0.4,0.2-0.4,0.4L1220.6,442.7z M1212.3,429.7l6.3,1.2
					c0.5,0.1,1,0.5,1.1,1.1l1,6.1l1.1-6.1c0.1-0.5,0.5-1,1.1-1.1l6.5-1.2l-6.3-1c-0.6-0.1-1-0.5-1.1-1.1l-1.3-6.8l-1.1,6.8
					c-0.1,0.6-0.5,1-1.1,1.1L1212.3,429.7z"/>
			</g>
		</g>
		<g>
			<g>
				<path d="M1199.2,469.8C1199.2,469.8,1199.2,469.8,1199.2,469.8c-0.5,0-0.8-0.3-0.9-0.8l-1.9-11.9l-12-2.2
					c-0.4-0.1-0.8-0.5-0.8-0.9c0-0.5,0.3-0.8,0.8-0.9l11.9-1.9l2-12.5c0.1-0.4,0.5-0.8,0.9-0.8c0.4,0,0.8,0.3,0.9,0.8l2.3,12.5
					l12.1,1.9c0.4,0.1,0.8,0.5,0.8,0.9c0,0.5-0.3,0.8-0.8,0.9l-12.2,2.3l-2.2,11.9C1200,469.5,1199.6,469.8,1199.2,469.8z
					 M1190,454.1l7.4,1.4c0.4,0.1,0.7,0.4,0.7,0.8l1.1,7.2l1.3-7.2c0.1-0.4,0.4-0.7,0.7-0.7l7.6-1.4l-7.4-1.2
					c-0.4-0.1-0.7-0.4-0.8-0.7l-1.5-7.9l-1.2,7.9c-0.1,0.4-0.4,0.7-0.8,0.8L1190,454.1z"/>
				<path d="M1199.2,470.2L1199.2,470.2c-0.7,0-1.2-0.5-1.3-1.1l-1.8-11.6l-11.7-2.2c-0.6-0.1-1.1-0.7-1.1-1.3
					c0-0.6,0.5-1.2,1.1-1.3l11.6-1.8l1.9-12.2c0.1-0.6,0.6-1.1,1.3-1.1c0.6,0,1.2,0.5,1.3,1.1l2.3,12.2l11.8,1.9
					c0.6,0.1,1.1,0.6,1.1,1.3c0,0.6-0.4,1.2-1.1,1.3l-11.9,2.2l-2.2,11.6C1200.4,469.8,1199.8,470.2,1199.2,470.2z M1199.2,438.3
					c-0.3,0-0.5,0.2-0.5,0.4l-2,12.8l-12.2,1.9c-0.3,0-0.4,0.3-0.4,0.5c0,0.3,0.2,0.5,0.4,0.5l12.3,2.3l1.9,12.2
					c0,0.3,0.3,0.4,0.5,0.4l0,0.4v-0.4c0.3,0,0.5-0.2,0.5-0.4l2.3-12.1l12.5-2.3c0.3,0,0.4-0.3,0.4-0.5c0-0.3-0.2-0.5-0.4-0.5
					l-12.3-2l-2.4-12.8C1199.6,438.5,1199.4,438.3,1199.2,438.3z M1199.2,465.8l-1.5-9.5c0-0.2-0.2-0.4-0.4-0.4l-9.6-1.8l9.5-1.5
					c0.2,0,0.4-0.2,0.4-0.4l1.6-10.1l1.9,10.1c0,0.2,0.2,0.4,0.4,0.4l9.7,1.5l-9.8,1.8c-0.2,0-0.4,0.2-0.4,0.4L1199.2,465.8z
					 M1192.3,454.1l5.1,1c0.5,0.1,1,0.5,1.1,1.1l0.8,5l0.9-5c0.1-0.5,0.5-1,1.1-1.1l5.3-1l-5.1-0.8c-0.6-0.1-1-0.5-1.1-1.1l-1-5.6
					l-0.9,5.6c-0.1,0.6-0.5,1-1.1,1.1L1192.3,454.1z"/>
			</g>
		</g>
	</g>
</g>
<circle class="st3" cx="1334.8" cy="265.4" r="155.9"/>
</svg>
